<svg width="60" height="60" viewBox="0 0 60 60" fill="none" xmlns="http://www.w3.org/2000/svg">
<rect width="60" height="60" rx="0" fill="#4E064F"/>
<path d="M30 60C46.5685 60 60 46.5686 60 30C60 13.4315 46.5685 0 30 0C13.4314 0 0 13.4315 0 30C0 46.5686 13.4314 60 30 60Z" fill="#4E064F"/>
<path fill-rule="evenodd" clip-rule="evenodd" d="M15.8306 15.5695L15.837 15.5759L15.8337 15.5792L15.8275 15.5854C15.5638 15.849 15.5638 16.2764 15.8275 16.54L20.6378 21.3504C20.9015 21.614 21.3288 21.614 21.5925 21.3504L21.5987 21.3442C21.6248 21.3181 21.6482 21.2904 21.6691 21.2615C26.4507 16.5592 34.1388 16.5837 38.8901 21.335C40.0433 22.4881 40.9179 23.8142 41.5142 25.2298L37.7611 25.2001C37.3884 25.1971 37.0838 25.4969 37.0809 25.8697C37.0794 26.0506 37.1506 26.2244 37.2786 26.3524L45.0888 34.1626C45.3524 34.4262 45.7797 34.4262 46.0434 34.1626L53.7312 26.4749C53.9948 26.2111 53.9948 25.7839 53.7312 25.5202C53.6058 25.3949 53.4363 25.324 53.2591 25.3225L50.0821 25.2974C49.2438 21.7326 47.4348 18.3497 44.655 15.57C36.6953 7.61031 23.7903 7.61014 15.8306 15.5695ZM39.3579 38.1359C39.2074 38.3039 39.0515 38.4686 38.8901 38.63C34.1141 43.4057 26.3709 43.4057 21.595 38.63C20.3335 37.3685 19.4053 35.8999 18.8102 34.3338L22.1677 34.3603C22.5403 34.3633 22.845 34.0633 22.8478 33.6907C22.8493 33.5098 22.7782 33.3358 22.6502 33.2078L14.84 25.3978C14.5764 25.1342 14.1491 25.1342 13.8854 25.3978L6.1977 33.0854C5.9341 33.3491 5.9341 33.7763 6.1977 34.0402C6.32299 34.1653 6.49249 34.2364 6.66966 34.2377L10.313 34.2665C11.1072 37.9782 12.9462 41.5111 15.83 44.3949C23.7898 52.3547 36.6952 52.3547 44.655 44.3949C44.7777 44.2722 44.8985 44.1483 45.0175 44.0233C45.0586 43.9972 45.0975 43.9661 45.1334 43.9302L45.1397 43.9239C45.4032 43.6602 45.4032 43.233 45.1397 42.9694L40.3292 38.1589C40.0666 37.8964 39.6417 37.8954 39.3777 38.1557L39.3579 38.1359Z" fill="white"/>
</svg>
