<svg width="289" height="289" viewBox="0 0 289 289" fill="none" xmlns="http://www.w3.org/2000/svg">
<g filter="url(#filter0_d_1592_7573)">
<path d="M144.5 169C180.122 169 209 140.123 209 104.5C209 68.8777 180.122 40 144.5 40C108.877 40 80 68.8777 80 104.5C80 140.123 108.877 169 144.5 169Z" fill="#4E064F"/>
</g>
<path fill-rule="evenodd" clip-rule="evenodd" d="M114.036 73.4742L114.05 73.4881L114.042 73.4951L114.029 73.5086C113.462 74.0754 113.462 74.9942 114.029 75.561L124.371 85.9033C124.938 86.4701 125.857 86.4701 126.424 85.9033L126.437 85.8899C126.493 85.8339 126.544 85.7744 126.589 85.7122C136.869 75.6023 153.398 75.6549 163.614 85.8701C166.093 88.3493 167.974 91.2004 169.256 94.2439L161.186 94.1802C160.385 94.1737 159.73 94.8182 159.724 95.6199C159.721 96.0088 159.874 96.3823 160.149 96.6575L176.941 113.45C177.508 114.016 178.426 114.016 178.993 113.45L195.522 96.9209C196.089 96.3538 196.089 95.4352 195.522 94.8684C195.252 94.5989 194.888 94.4465 194.507 94.4433L187.676 94.3893C185.874 86.7251 181.985 79.4518 176.008 73.4754C158.895 56.3621 131.149 56.3617 114.036 73.4742ZM164.619 121.992C164.296 122.353 163.961 122.707 163.614 123.054C153.345 133.322 136.697 133.322 126.429 123.054C123.717 120.342 121.721 117.185 120.442 113.817L127.66 113.875C128.462 113.881 129.117 113.236 129.123 112.435C129.126 112.046 128.973 111.672 128.698 111.397L111.906 94.6052C111.339 94.0384 110.42 94.0384 109.854 94.6052L93.325 111.134C92.7583 111.7 92.7583 112.619 93.325 113.186C93.5944 113.455 93.9588 113.608 94.3398 113.611L102.173 113.673C103.88 121.653 107.834 129.249 114.035 135.449C131.148 152.563 158.895 152.563 176.008 135.449C176.272 135.185 176.532 134.919 176.788 134.65C176.876 134.594 176.96 134.527 177.037 134.45L177.05 134.436C177.617 133.869 177.617 132.951 177.05 132.384L166.708 122.041C166.143 121.477 165.23 121.475 164.662 122.035L164.619 121.992Z" fill="white"/>
<defs>
<filter id="filter0_d_1592_7573" x="0" y="0" width="289" height="289" filterUnits="userSpaceOnUse" color-interpolation-filters="sRGB">
<feFlood flood-opacity="0" result="BackgroundImageFix"/>
<feColorMatrix in="SourceAlpha" type="matrix" values="0 0 0 0 0 0 0 0 0 0 0 0 0 0 0 0 0 0 127 0" result="hardAlpha"/>
<feOffset dy="40"/>
<feGaussianBlur stdDeviation="40"/>
<feComposite in2="hardAlpha" operator="out"/>
<feColorMatrix type="matrix" values="0 0 0 0 0 0 0 0 0 0 0 0 0 0 0 0 0 0 0.25 0"/>
<feBlend mode="normal" in2="BackgroundImageFix" result="effect1_dropShadow_1592_7573"/>
<feBlend mode="normal" in="SourceGraphic" in2="effect1_dropShadow_1592_7573" result="shape"/>
</filter>
</defs>
</svg>
